<svg width="129" height="128" viewBox="0 0 129 128" fill="none" xmlns="http://www.w3.org/2000/svg">
<path d="M107.167 84.7217C106.837 85.053 106.445 85.316 106.014 85.4954C105.583 85.6748 105.12 85.7672 104.653 85.7672C104.186 85.7672 103.723 85.6748 103.292 85.4954C102.86 85.316 102.468 85.053 102.139 84.7217L97.1114 79.6942C96.7801 79.3647 96.5172 78.973 96.3378 78.5416C96.1583 78.1102 96.066 77.6476 96.066 77.1804C96.066 76.7132 96.1583 76.2505 96.3378 75.8191C96.5172 75.3877 96.7801 74.996 97.1114 74.6666L107.167 64.6115C107.496 64.281 107.888 64.0188 108.32 63.84C108.751 63.6611 109.213 63.569 109.68 63.569C110.147 63.569 110.61 63.6611 111.041 63.84C111.472 64.0188 111.864 64.281 112.194 64.6115L117.222 69.6391C117.553 69.9685 117.816 70.3602 117.995 70.7916C118.175 71.223 118.267 71.6856 118.267 72.1528C118.267 72.6201 118.175 73.0827 117.995 73.5141C117.816 73.9455 117.553 74.3372 117.222 74.6666L107.167 84.7217ZM53.8332 31.3884C53.5038 31.7197 53.1121 31.9826 52.6807 32.1621C52.2493 32.3415 51.7867 32.4338 51.3194 32.4338C50.8522 32.4338 50.3896 32.3415 49.9582 32.1621C49.5268 31.9826 49.1351 31.7197 48.8057 31.3884L43.7781 26.3608C43.4468 26.0314 43.1838 25.6397 43.0044 25.2083C42.825 24.7769 42.7326 24.3143 42.7326 23.8471C42.7326 23.3798 42.825 22.9172 43.0044 22.4858C43.1838 22.0544 43.4468 21.6627 43.7781 21.3333L53.8332 11.2782C54.1631 10.9477 54.555 10.6855 54.9863 10.5066C55.4176 10.3277 55.88 10.2357 56.347 10.2357C56.8139 10.2357 57.2763 10.3277 57.7077 10.5066C58.139 10.6855 58.5308 10.9477 58.8608 11.2782L63.8883 16.3057C64.2196 16.6352 64.4826 17.0268 64.662 17.4582C64.8414 17.8897 64.9338 18.3523 64.9338 18.8195C64.9338 19.2867 64.8414 19.7493 64.662 20.1808C64.4826 20.6122 64.2196 21.0038 63.8883 21.3333L53.8332 31.3884Z" fill="#7C7E80"/>
<path d="M7.61107 78.2223C14.7222 78.2223 46.7222 81.7778 46.7222 81.7778C46.7222 81.7778 50.2777 113.778 50.2777 120.889C50.2777 128 43.1666 128 39.6111 124.444C36.0555 120.889 25.3888 103.111 25.3888 103.111C25.3888 103.111 7.61107 92.4445 4.05551 88.8889C0.499958 85.3334 0.499958 78.2223 7.61107 78.2223ZM14.7222 21.472C25.3888 21.3334 103.611 24.8889 103.611 24.8889C103.611 24.8889 106.896 103.111 107.032 113.778C107.167 124.444 97.2075 128.007 93.3 113.781C89.3924 99.5556 75.1666 53.3334 75.1666 53.3334C75.1666 53.3334 25.5488 37.6285 14.7044 35.1929C0.499958 32 4.05196 21.6072 14.7222 21.472Z" fill="#6494C6"/>
<path d="M96.4999 10.6667C103.611 3.55557 121.389 1.16825e-05 124.944 3.55557C128.5 7.11112 124.944 24.8889 117.833 32C110.722 39.1111 50.2777 96 50.2777 96C50.2777 96 27.1666 112 21.8332 106.667C16.4999 101.333 32.4999 78.2222 32.4999 78.2222C32.4999 78.2222 89.3888 17.7778 96.4999 10.6667Z" fill="#D2D5D9"/>
<path d="M50.2779 78.2222C50.2779 78.2222 52.0557 80 36.0557 96C20.0557 112 18.2779 110.222 18.2779 110.222C18.2779 110.222 16.5002 108.444 32.5002 92.4445C48.5002 76.4445 50.2779 78.2222 50.2779 78.2222ZM103.611 14.2222C106.44 14.2222 109.153 15.346 111.154 17.3464C113.154 19.3468 114.278 22.0599 114.278 24.8889H117.14C117.546 23.7689 117.834 22.5956 117.834 21.3333C117.834 18.5044 116.71 15.7913 114.709 13.7909C112.709 11.7905 109.996 10.6667 107.167 10.6667C105.905 10.6667 104.731 10.9547 103.611 11.36V14.2222Z" fill="#7C7E80"/>
</svg>
