<svg width="181" height="128" viewBox="0 0 181 128" fill="none" xmlns="http://www.w3.org/2000/svg">
<g clip-path="url(#clip0_355_7407)">
<path d="M159.094 54.7637C159.094 54.7637 149.094 12.9144 134.094 12.9144H79.0935C64.0935 12.9144 44.0935 49.5325 44.0935 49.5325C44.0935 49.5325 4.09354 54.7637 4.09354 75.6883V86.1507C4.09354 86.6215 4.19854 87.0661 4.22354 87.5265C2.67274 88.4261 1.37963 89.7427 0.477791 91.34C-0.424049 92.9374 -0.901922 94.7578 -0.906464 96.613C-0.906464 99.3878 0.147105 102.049 2.02247 104.011C3.89783 105.973 6.44137 107.075 9.09354 107.075H159.094C164.398 107.075 169.485 104.871 173.236 100.947C176.986 97.0225 179.094 91.7002 179.094 86.1507V75.6883C179.094 70.1388 176.986 64.8165 173.236 60.8924C169.485 56.9683 164.398 54.7637 159.094 54.7637Z" fill="#D2D5D9"/>
<path d="M4.09354 75.6884V86.1507C4.09354 86.6215 4.19854 87.0661 4.22354 87.5265C2.67274 88.4261 1.37963 89.7427 0.477791 91.3401C-0.424049 92.9375 -0.901922 94.7578 -0.906464 96.613C-0.906464 99.3878 0.147105 102.049 2.02247 104.011C3.89783 105.973 6.44137 107.075 9.09354 107.075H159.094C164.398 107.075 169.485 104.871 173.236 100.947C176.986 97.0225 179.094 91.7002 179.094 86.1507V75.6884C179.094 73.8679 178.799 72.1364 178.384 70.4572H5.09854C4.4624 72.1225 4.12183 73.8952 4.09354 75.6884Z" fill="#555759"/>
<path d="M4 86.8162V76.1838C4 76.1046 3.91221 76.0568 3.84567 76.0999L2.04567 77.2646C2.0172 77.283 2 77.3146 2 77.3485V85.6515C2 85.6854 2.0172 85.717 2.04567 85.7354L3.84567 86.9001C3.91221 86.9432 4 86.8954 4 86.8162Z" fill="#6494C6" stroke="#6494C6" stroke-width="0.2"/>
<path d="M78.6434 107.075C78.9184 105.37 79.0934 103.633 79.0934 101.844C79.0934 93.5198 75.9327 85.5364 70.3066 79.6502C64.6806 73.764 57.0499 70.4572 49.0934 70.4572C41.1369 70.4572 33.5063 73.764 27.8802 79.6502C22.2542 85.5364 19.0934 93.5198 19.0934 101.844C19.0934 103.633 19.2684 105.37 19.5434 107.075H78.6434ZM163.643 107.075C163.918 105.37 164.093 103.633 164.093 101.844C164.093 93.5198 160.933 85.5364 155.307 79.6502C149.681 73.764 142.05 70.4572 134.093 70.4572C126.137 70.4572 118.506 73.764 112.88 79.6502C107.254 85.5364 104.093 93.5198 104.093 101.844C104.093 103.633 104.268 105.37 104.543 107.075H163.643Z" fill="#ADB0B2"/>
<path d="M49.0934 122.769C60.1391 122.769 69.0934 113.401 69.0934 101.844C69.0934 90.2878 60.1391 80.9195 49.0934 80.9195C38.0477 80.9195 29.0934 90.2878 29.0934 101.844C29.0934 113.401 38.0477 122.769 49.0934 122.769Z" fill="#555759"/>
<path d="M49.0934 112.306C54.6162 112.306 59.0934 107.622 59.0934 101.844C59.0934 96.066 54.6162 91.3819 49.0934 91.3819C43.5705 91.3819 39.0934 96.066 39.0934 101.844C39.0934 107.622 43.5705 112.306 49.0934 112.306Z" fill="#D2D5D9"/>
<path d="M134.094 122.769C145.139 122.769 154.094 113.401 154.094 101.844C154.094 90.2878 145.139 80.9195 134.094 80.9195C123.048 80.9195 114.094 90.2878 114.094 101.844C114.094 113.401 123.048 122.769 134.094 122.769Z" fill="#555759"/>
<path d="M134.094 112.306C139.616 112.306 144.094 107.622 144.094 101.844C144.094 96.066 139.616 91.3819 134.094 91.3819C128.571 91.3819 124.094 96.066 124.094 101.844C124.094 107.622 128.571 112.306 134.094 112.306Z" fill="#D2D5D9"/>
<path d="M114.093 49.5326H149.093C149.093 49.5326 139.093 23.3767 134.093 23.3767H114.093V49.5326ZM104.093 23.3767H79.0935C69.0935 23.3767 54.0935 49.5326 54.0935 49.5326H104.093V23.3767Z" fill="#6494C6"/>
</g>
<defs>
<clipPath id="clip0_355_7407">
<rect width="180" height="128" fill="white" transform="translate(0.5)"/>
</clipPath>
</defs>
</svg>
