<svg width="128" height="128" viewBox="0 0 128 128" fill="none" xmlns="http://www.w3.org/2000/svg">
<g clip-path="url(#clip0_355_8586)">
<path d="M74.6667 53.3333C74.6667 57.1053 73.1683 60.7228 70.5011 63.39C67.8339 66.0571 64.2164 67.5556 60.4444 67.5556H14.2222C10.4503 67.5556 6.83278 66.0571 4.16559 63.39C1.49841 60.7228 0 57.1053 0 53.3333V42.6667C0 38.8947 1.49841 35.2772 4.16559 32.61C6.83278 29.9429 10.4503 28.4444 14.2222 28.4444H60.4444C64.2164 28.4444 67.8339 29.9429 70.5011 32.61C73.1683 35.2772 74.6667 38.8947 74.6667 42.6667V53.3333Z" fill="#555759"/>
<path d="M128 21.3333C128 25.1053 126.502 28.7228 123.834 31.39C121.167 34.0571 117.55 35.5556 113.778 35.5556H71.1111C67.3391 35.5556 63.7217 34.0571 61.0545 31.39C58.3873 28.7228 56.8889 25.1053 56.8889 21.3333V17.7778C56.8889 14.0058 58.3873 10.3883 61.0545 7.72115C63.7217 5.05397 67.3391 3.55556 71.1111 3.55556H113.778C117.55 3.55556 121.167 5.05397 123.834 7.72115C126.502 10.3883 128 14.0058 128 17.7778V21.3333Z" fill="#555759"/>
<path d="M0 42.6667V120.889C0 122.775 0.749204 124.584 2.0828 125.917C3.41639 127.251 5.22513 128 7.11111 128H117.333V42.6667H0Z" fill="#D2D5D9"/>
<path d="M7.11111 113.778H49.7778V128H7.11111V113.778ZM7.11111 92.4444H64V106.667H7.11111V92.4444Z" fill="#6494C6"/>
<path d="M56.8889 17.7778V128H120.889C122.775 128 124.584 127.251 125.917 125.917C127.251 124.584 128 122.775 128 120.889V17.7778H56.8889Z" fill="#D2D5D9"/>
<path d="M64 71.1111H120.889V85.3333H64V71.1111ZM64 49.7778H120.889V64H64V49.7778ZM64 28.4444H120.889V42.6667H64V28.4444ZM64 92.4444H120.889V106.667H64V92.4444Z" fill="#6494C6"/>
<path d="M78.2222 24.8889H85.3333V110.222H78.2222V24.8889ZM99.5556 24.8889H106.667V110.222H99.5556V24.8889Z" fill="#D2D5D9"/>
<path d="M78.2222 113.778H106.667V128H78.2222V113.778ZM35.5556 49.7778V64H21.3333V49.7778H14.2222V85.3333H21.3333V71.1111H35.5556V85.3333H42.6667V49.7778H35.5556Z" fill="#6494C6"/>
<path d="M24.8889 88.8889H32V110.222H24.8889V88.8889ZM49.7778 88.8889H56.8889V110.222H49.7778V88.8889Z" fill="#D2D5D9"/>
</g>
<defs>
<clipPath id="clip0_355_8586">
<rect width="128" height="128" fill="white"/>
</clipPath>
</defs>
</svg>
