<svg width="49" height="48" viewBox="0 0 49 48" fill="none" xmlns="http://www.w3.org/2000/svg">
<g clip-path="url(#clip0_370_7408)">
<path d="M46.5 42V38C46.4987 36.2275 45.9087 34.5056 44.8227 33.1046C43.7368 31.7037 42.2163 30.7031 40.5 30.26" stroke="#2978CC" stroke-width="5" stroke-linecap="round" stroke-linejoin="round"/>
<path d="M34.5 42V38C34.5 35.8783 33.6571 33.8434 32.1569 32.3431C30.6566 30.8429 28.6217 30 26.5 30H10.5C8.37827 30 6.34344 30.8429 4.84315 32.3431C3.34285 33.8434 2.5 35.8783 2.5 38V42" stroke="#2978CC" stroke-width="5" stroke-linecap="round" stroke-linejoin="round"/>
<path d="M32.5 6.26001C34.2208 6.70061 35.7461 7.70141 36.8353 9.10463C37.9245 10.5078 38.5157 12.2337 38.5157 14.01C38.5157 15.7864 37.9245 17.5122 36.8353 18.9154C35.7461 20.3186 34.2208 21.3194 32.5 21.76" stroke="#2978CC" stroke-width="5" stroke-linecap="round" stroke-linejoin="round"/>
<path d="M18.5 22C22.9183 22 26.5 18.4183 26.5 14C26.5 9.58172 22.9183 6 18.5 6C14.0817 6 10.5 9.58172 10.5 14C10.5 18.4183 14.0817 22 18.5 22Z" stroke="#2978CC" stroke-width="5" stroke-linecap="round" stroke-linejoin="round"/>
</g>
<defs>
<clipPath id="clip0_370_7408">
<rect width="48" height="48" fill="white" transform="translate(0.5)"/>
</clipPath>
</defs>
</svg>
